<svg xmlns="http://www.w3.org/2000/svg" width="27.995" height="28" viewBox="0 0 27.995 28">
  <g id="Group_73554" data-name="Group 73554" transform="translate(0 0)">
    <g id="Group_73553" data-name="Group 73553" transform="translate(0 0)">
      <path id="Path_112505" data-name="Path 112505" d="M133.79,376.593c0-.026-.027-.052-.041-.078-.1-.09-.217-.045-.325-.046q-2.619-.015-5.238-.023h0l-.942-.244h0a6.678,6.678,0,0,1-1.117-.638c-.249-.287-.607-.475-.762-.847h0a5.04,5.04,0,0,1-.476-1,4.413,4.413,0,0,1,.54-3.841h0a.708.708,0,0,1,.2-.274c.242-.221.486-.44.73-.659h0a6.986,6.986,0,0,1,1.39-.607h0a9.633,9.633,0,0,1,1.6-.136h2.977c.423,0,.846,0,1.268.015.169,0,.208-.068.207-.221,0-.98,0-1.96-.007-2.94a2.822,2.822,0,0,0-.087-.641,2.34,2.34,0,0,0-1.318-1.606,2.733,2.733,0,0,0-1.614-.249H111.109a1.965,1.965,0,0,0-.747.053h0a1.545,1.545,0,0,0-.8.322h0a1.659,1.659,0,0,0-.622.553h0a2.152,2.152,0,0,0-.55,1.47c-.02.774-.006,1.549-.006,2.324q0,6.134,0,12.269a2.3,2.3,0,0,0,.555,1.626,1.707,1.707,0,0,0,.621.554h0a1.876,1.876,0,0,0,.928.356l.624.018h19.726a2.518,2.518,0,0,0,1.776-.38,2.147,2.147,0,0,0,1.129-1.672A32.686,32.686,0,0,0,133.79,376.593Z" transform="translate(-108.375 -354.116)" fill="#d9232d"/>
      <g id="Group_73551" data-name="Group 73551" transform="translate(5.787 0)">
        <path id="Path_112506" data-name="Path 112506" d="M183.725,269.478h0c.342-.272.773-.4,1.106-.691a5.8,5.8,0,0,0,.871-.541h0a5.172,5.172,0,0,0,.813-.51h0a6.4,6.4,0,0,0,.793-.5,6.59,6.59,0,0,0,.906-.567,6,6,0,0,1,.532-.292c.255-.11.206-.231.056-.4a4.549,4.549,0,0,0-.636-.61h0a2,2,0,0,0-.792-.564h0a2.159,2.159,0,0,0-1.061-.248,1.613,1.613,0,0,0-.685.053h0a2.087,2.087,0,0,0-.987.395h0a5.053,5.053,0,0,0-1.06.976,13.594,13.594,0,0,0-1.05,1.064,5.852,5.852,0,0,0-.743.75,5.691,5.691,0,0,0-.743.75l-.632.648-.68.688a7.036,7.036,0,0,0-.742.749,6.8,6.8,0,0,0-.789.8c.749,0,1.415,0,2.081,0,.129,0,.268.047.387-.048h0a1.311,1.311,0,0,0,.483-.317h0a2.9,2.9,0,0,0,.7-.42h0a6.188,6.188,0,0,0,.886-.558h0A7.074,7.074,0,0,0,183.725,269.478Z" transform="translate(-178.2 -264.552)" fill="#3c3c3c"/>
        <path id="Path_112507" data-name="Path 112507" d="M248.447,298.92c-.105-.177-.207-.357-.316-.531q-.532-.849-1.069-1.7h0c-.164-.272-.323-.546-.491-.815a2.186,2.186,0,0,0-.775-.812h0a1.682,1.682,0,0,0-.943-.365h0a1.65,1.65,0,0,0-1.063.071,2.773,2.773,0,0,0-1,.536h0a4.431,4.431,0,0,0-.738.457h0a8.594,8.594,0,0,0-.992.619h0l-1.492.919-1.181.741-1.507.927.028.06h.115l11.218,0a.679.679,0,0,0,.212-.019C248.5,299,248.481,298.951,248.447,298.92Z" transform="translate(-232.017 -292.147)" fill="#3c3c3c"/>
      </g>
      <g id="Group_73552" data-name="Group 73552" transform="translate(17.709 15.227)">
        <path id="Path_112508" data-name="Path 112508" d="M332.306,447.139a1.42,1.42,0,0,0-1.222-1.351h0a.468.468,0,0,0-.3-.051q-2.927,0-5.854,0a1.95,1.95,0,0,0-.93.182h0a1.624,1.624,0,0,0-.811.42,2.85,2.85,0,0,0,.007,4.588h0a1.953,1.953,0,0,0,.866.441,2.755,2.755,0,0,0,1.24.13h5.273a1.473,1.473,0,0,0,1.729-1.391C332.328,449.121,332.325,448.13,332.306,447.139Zm-1.728-1.343h0Zm-1.23,0-.011,0h.011Zm-2.606,4a.766.766,0,0,0-.25.273c-.382.013-.754.127-1.138.124a.446.446,0,0,0-.216-.173,2.448,2.448,0,0,1-.556-.436,2.33,2.33,0,0,1-.37-.692.394.394,0,0,1,.02-.036.463.463,0,0,0-.009-.37.143.143,0,0,1-.05-.015l0-.01a.119.119,0,0,0,.059-.067,1.641,1.641,0,0,1,1.087-1.229c.065-.027.121-.061.118-.129a2.039,2.039,0,0,1,1.046.144.508.508,0,0,0,.195.228A1.535,1.535,0,0,1,326.741,449.795Z" transform="translate(-322.035 -445.735)" fill="#d9232d"/>
        <path id="Path_112509" data-name="Path 112509" d="M360.473,473.265a.6.6,0,0,0-.588.625.619.619,0,0,0,.606.616.635.635,0,0,0,.61-.65A.614.614,0,0,0,360.473,473.265Z" transform="translate(-356.748 -470.983)" fill="#d9232d"/>
      </g>
    </g>
  </g>
</svg>
