<svg id="noun-secure-payment-4563843" xmlns="http://www.w3.org/2000/svg" width="30.961" height="23.583" viewBox="0 0 30.961 23.583">
  <path id="Path_112502" data-name="Path 112502" d="M99.629,68.835a2.116,2.116,0,0,0-2.116-2.116h-25.4A2.116,2.116,0,0,0,70,68.835v2.532H99.629Z" transform="translate(-69.998 -66.719)" fill="#3c3c3c"/>
  <path id="Path_112503" data-name="Path 112503" d="M87.887,177.11a2.547,2.547,0,0,1,.57-1.923,2.724,2.724,0,0,1,1.923-.8,4,4,0,0,0,2.328-.742l.934-.665a2.721,2.721,0,0,1,1.575-.5c.565,0,1.115.536,1.576.863l.934.665a4,4,0,0,0,1.9.722v-3.47H70v12.677a2.116,2.116,0,0,0,2.116,2.116H89.353a10.342,10.342,0,0,1-1.467-4.86Zm-13.743-1.6h.593a.907.907,0,1,1,0,1.814h-.593a.907.907,0,0,1,0-1.814Zm7.763,5.7H74.144a.907.907,0,0,1,0-1.814h7.763a.907.907,0,0,1,0,1.814Zm0-3.882H78.295a.907.907,0,0,1,0-1.814h3.612a.907.907,0,0,1,0,1.814Z" transform="translate(-70.002 -165.48)" fill="#3c3c3c"/>
  <path id="Path_112504" data-name="Path 112504" d="M433.436,228.165a6.173,6.173,0,0,1-3.592-1.145l-.994-.707a.964.964,0,0,0-1.116,0l-.994.707a6.173,6.173,0,0,1-3.592,1.145.965.965,0,0,0-.965.965v4.342a8.863,8.863,0,0,0,5.772,8.308.965.965,0,0,0,.672,0,8.863,8.863,0,0,0,5.772-8.308V229.13a.965.965,0,0,0-.965-.965Zm-2.491,5.134-2.337,2.652a.964.964,0,0,1-1.447,0l-1.522-1.727h0a.965.965,0,0,1,1.448-1.275l.8.905,1.613-1.831h0a.965.965,0,1,1,1.448,1.275Z" transform="translate(-403.44 -218.257)" fill="#d9232d"/>
</svg>
