<svg xmlns="http://www.w3.org/2000/svg" width="32.611" height="29.752" viewBox="0 0 32.611 29.752">
  <g id="noun-headphones-5126272" transform="translate(1 1.023)">
    <path id="Path_112510" data-name="Path 112510" d="M340.668,484.885a2.156,2.156,0,1,0-.634,1.521,2.157,2.157,0,0,0,.634-1.521Z" transform="translate(-322.039 -458.306)" fill="#d9232d"/>
    <path id="Path_112511" data-name="Path 112511" d="M136.773,44.661a13.227,13.227,0,0,0-4.058,9.482v4.4h1.517v-4.4a11.761,11.761,0,0,1,3.608-8.446,12.595,12.595,0,0,1,17.423,0,11.762,11.762,0,0,1,3.608,8.446v4.4H160.4v-4.4h0a13.227,13.227,0,0,0-4.06-9.484,14.249,14.249,0,0,0-6.078-3.44C149.269,40.926,141.616,39.557,136.773,44.661Z" transform="translate(-131.375 -40.833)" fill="#3c3c3c" stroke="#3c3c3c" stroke-width="2"/>
    <path id="Path_112512" data-name="Path 112512" d="M540.66,342.723h3.005c.152,0,.274-.072.274-.158V339.52a.14.14,0,0,0-.091-.119.454.454,0,0,0-.182-.039H540.66Z" transform="translate(-513.328 -322.171)" fill="#3c3c3c" stroke="#3c3c3c" stroke-width="2"/>
    <path id="Path_112513" data-name="Path 112513" d="M493.032,296.067v-4.018a2.853,2.853,0,0,0-2.527-2.836v9.72a2.855,2.855,0,0,0,2.527-2.836Z" transform="translate(-466.345 -275.336)" fill="#d9232d"/>
    <path id="Path_112514" data-name="Path 112514" d="M169.529,296.072a2.856,2.856,0,0,0,2.527,2.852v-9.72a2.853,2.853,0,0,0-2.527,2.836Z" transform="translate(-165.613 -275.328)" fill="#d9232d"/>
    <path id="Path_112515" data-name="Path 112515" d="M425.99,268.6h-2.55a.541.541,0,0,0-.541.538v11.236a.541.541,0,0,0,.541.538h2.547a.541.541,0,0,0,.541-.538V269.138a.541.541,0,0,0-.538-.538Z" transform="translate(-403.06 -256.558)" fill="#d9232d"/>
    <path id="Path_112516" data-name="Path 112516" d="M130.316,339.4a.138.138,0,0,0-.089.119v3.046c0,.086.113.156.253.158h2.78v-3.361h-2.8A.332.332,0,0,0,130.316,339.4Z" transform="translate(-130.226 -322.166)" fill="#3c3c3c" stroke="#3c3c3c" stroke-width="2"/>
    <path id="Path_112517" data-name="Path 112517" d="M222.766,268.6h-2.55a.541.541,0,0,0-.541.538v11.236a.541.541,0,0,0,.541.538h2.55a.541.541,0,0,0,.541-.538V269.138A.541.541,0,0,0,222.766,268.6Z" transform="translate(-212.541 -256.558)" fill="#d9232d"/>
    <path id="Path_112518" data-name="Path 112518" d="M391,444.03v1.488a2.443,2.443,0,0,1-2.424,2.437h-5.988v-.644h5.988a1.8,1.8,0,0,0,1.8-1.793v-1.156Z" transform="translate(-365.252 -420.894)" fill="#d9232d"/>
  </g>
</svg>
